<svg xmlns:xlink="http://www.w3.org/1999/xlink" viewBox="0 0 452.24 117.7" xmlns="http://www.w3.org/2000/svg" class="_1Kd9j" width="452.24"  height="117.7" ><h1>Pucci</h1><g fill="#1A1919" fill-rule="evenodd"><path class="cls-1" d="M40.58,2.27c18.57,0,36.15.62,48.64,20.18C95,31.14,95,43.56,90,53c-7.55,14.9-28.91,17.4-37.45,17.7-5.92.2-9.34,0-14,0v42.81H53.89v1.24H0v-1.24H15.28V3.67H0V2.27Zm-2,66.8c5.34,0,6.9-.07,8.71-.07,7.72,0,14.3-2.16,18.9-9.3,5.75-9,5.42-37.87.16-46.72C60,2.43,44.36,3.67,38.61,3.67Z" fill="#1A1919"></path><path class="cls-1" d="M184.89,3.85h-15V2.45h31.47v1.4h-15V78.23c0,9.48,1.64,28.43-15.64,35.57-9.78,4.19-31.3,5.28-42.72-1.24-16.14-8.86-16.79-18.64-16.79-34.33V3.85H96V2.45h53.47v1.4H134.36V82.43c0,11.64-.66,23.45,12.39,30.44,6.51,3.57,18.41,1.7,23.47-.63,16.3-6.67,14.67-24.84,14.67-34.16Z" fill="#1A1919"></path><path class="cls-1" d="M284.31,0h1V47.32h-1.14c-2-10.55-9-35.06-25.85-43.6-4.26-2.33-13.58-2.48-18.82.62-14.56,8.22-15.87,22.5-16.52,39.25-.5,14.28-.65,18.63.32,29.64,1.64,17.22,2.62,33.2,17.35,40.34,5.88,2.79,17.88,1.82,24.05-1.4,16.78-8.76,19.58-26.46,20.73-37.63,0-.09,0-.18,0-.27h1.24a.81.81,0,0,1,0,.25c-.61,4.09-.16,30.38-24.48,40.74-13.4,5.71-28.63.94-42.54-10.08a58.88,58.88,0,0,1-21.76-50.74c2.12-17.22,12.77-40.33,34.2-49.79,5.56-2.49,14.56-5.13,20.45-4.19,8.18,1.24,11.78,3.25,20,6,4.09,1.56,6.38,1.4,8.51-1.08A11.5,11.5,0,0,0,284.31,0Z" fill="#1A1919"></path><path class="cls-1" d="M386.69,0h1V47.32h-1.14c-2-10.55-9-35.06-25.85-43.6-4.25-2.33-13.58-2.48-18.82.62C327.3,12.56,326,26.84,325.33,43.59c-.49,14.28-.65,18.63.34,29.64,1.63,17.22,2.61,33.2,17.34,40.34,5.89,2.79,17.88,1.82,24.05-1.4,16.78-8.76,19.58-26.46,20.74-37.63a1.26,1.26,0,0,1,0-.27h1.24a.54.54,0,0,1,0,.25c-.61,4.09-.15,30.38-24.48,40.74-13.4,5.71-28.63.94-42.54-10.08A58.86,58.86,0,0,1,300.3,54.45c2.12-17.22,12.76-40.33,34.2-49.79C340.07,2.17,349.06-.47,355,.47c8.18,1.24,11.78,3.25,20,6,4.08,1.56,6.37,1.4,8.5-1.08A11.5,11.5,0,0,0,386.69,0Z" fill="#1A1919"></path><path class="cls-1" d="M413.62,3.72H398.57V2.33h53.67V3.72H437V113.57h15.22v1.24H398.57v-1.24h15.05Z" fill="#1A1919"></path></g></svg>