<?xml version="1.0" encoding="utf-8"?>
<!-- Generator: Adobe Illustrator 16.0.0, SVG Export Plug-In . SVG Version: 6.00 Build 0)  -->
<!DOCTYPE svg PUBLIC "-//W3C//DTD SVG 1.1//EN" "http://www.w3.org/Graphics/SVG/1.1/DTD/svg11.dtd">
<svg version="1.1" id="Ebene_1" xmlns="http://www.w3.org/2000/svg" xmlns:xlink="http://www.w3.org/1999/xlink" x="0px" y="0px"
	 width="193.748px" height="29.707px" viewBox="0 0 193.748 29.707" enable-background="new 0 0 193.748 29.707"
	 xml:space="preserve">
<g>
	<polygon fill="#3C3C3B" points="101.484,17.833 103.818,17.833 103.818,10.065 121.004,10.065 121.004,7.969 103.818,7.969 
		103.818,2.549 121.479,2.549 121.479,0.454 101.484,0.454 	"/>
	<polygon fill="#3C3C3B" points="146.568,17.833 167.838,17.833 167.838,15.737 148.902,15.737 148.902,10.065 167.363,10.065 
		167.363,7.969 148.902,7.969 148.902,2.549 167.838,2.549 167.838,0.454 146.568,0.454 	"/>
	<polygon fill="#3C3C3B" points="126.649,0.454 124.315,0.454 124.315,17.833 143.653,17.833 143.653,15.738 126.649,15.738 	"/>
	<polygon fill="#3C3C3B" points="95.146,15.545 94.526,15.545 79.265,0.468 75.323,0.468 75.323,17.833 77.658,17.833 77.658,2.755 
		78.229,2.755 93.585,17.833 97.48,17.833 97.48,0.454 95.146,0.454 	"/>
	<polygon fill="#3C3C3B" points="51.564,0.453 30.106,0.453 30.106,2.553 39.432,2.553 39.432,17.833 41.766,17.833 41.766,2.553 
		51.564,2.553 	"/>
	<polygon fill="#3C3C3B" points="0.281,2.553 10.08,2.553 10.08,17.833 12.414,17.833 12.414,2.553 21.739,2.553 21.739,0.453 
		0.281,0.453 	"/>
	<rect x="24.755" y="0.454" fill="#3C3C3B" width="2.334" height="17.378"/>
	<path fill="#3C3C3B" d="M53.935,11.042l6.093-9.217l6.094,9.217H53.935z M58.19,0.454L47.338,16.852l1.884,1.319l3.327-5.031
		l14.959-0.002l3.328,5.032l1.881-1.316l-10.84-16.4H58.19z"/>
	<polygon fill="#3C3C3B" points="184.123,9.143 193.465,1.893 192.085,0.113 182.254,7.699 172.47,0.113 171.1,1.882 180.411,9.07 
		170.984,16.361 172.386,18.17 182.254,10.535 192.1,18.17 193.467,16.405 	"/>
	<path fill="#3C3C3B" d="M191.603,25.452h0.624v2.234c0,0.229,0.039,0.378,0.123,0.475c0.098,0.11,0.246,0.148,0.441,0.148
		c0.267,0,0.447-0.052,0.559-0.103v-0.344c-0.085,0.045-0.253,0.104-0.441,0.104c-0.123,0-0.194-0.025-0.24-0.085
		c-0.053-0.07-0.059-0.182-0.059-0.338v-2.092h0.74v-0.298h-0.74v-1.241l-0.383,0.085v1.156h-0.624V25.452z M191.135,25.094
		c-0.072-0.012-0.137-0.019-0.208-0.019c-0.468,0-0.825,0.312-0.937,0.675v-0.597h-0.381v3.091h0.381v-1.747
		c0-0.624,0.391-1.04,0.93-1.04c0.072,0,0.143,0.007,0.215,0.02V25.094z M186.152,26.706c0-0.806,0.39-1.3,1-1.3
		c0.611,0,1.002,0.487,1.002,1.3c0,0.799-0.403,1.287-1.002,1.287C186.555,27.993,186.152,27.512,186.152,26.706 M185.75,26.711
		c0,0.975,0.525,1.611,1.402,1.611s1.403-0.637,1.403-1.611c0-0.98-0.532-1.629-1.403-1.629S185.75,25.731,185.75,26.711
		 M185.068,25.154h-0.703v-0.65c0-0.176,0.026-0.272,0.098-0.338c0.052-0.046,0.124-0.071,0.234-0.071
		c0.129,0,0.267,0.032,0.371,0.064v-0.35c-0.092-0.026-0.222-0.059-0.396-0.059c-0.229,0-0.422,0.053-0.546,0.194
		c-0.091,0.104-0.142,0.247-0.142,0.507v0.702h-0.703v0.298h0.703v2.793h0.381v-2.793h0.703V25.154z M182.113,28.245h0.381v-1.871
		c0-0.604-0.058-0.87-0.284-1.078c-0.175-0.154-0.39-0.213-0.617-0.213c-0.468,0-0.832,0.252-0.976,0.643
		c-0.058-0.448-0.44-0.643-0.817-0.643c-0.403,0-0.787,0.207-0.917,0.59v-0.519h-0.382v3.091h0.382v-1.648
		c0-0.735,0.307-1.164,0.826-1.164c0.234,0,0.377,0.091,0.455,0.194c0.143,0.189,0.143,0.476,0.143,0.942v1.676h0.383v-1.65
		c0-0.721,0.305-1.162,0.825-1.162c0.234,0,0.377,0.091,0.455,0.194c0.144,0.189,0.144,0.476,0.144,0.942V28.245z M175.044,26.706
		c0-0.806,0.39-1.3,1.001-1.3s1.001,0.487,1.001,1.3c0,0.799-0.403,1.287-1.001,1.287S175.044,27.512,175.044,26.706
		 M174.642,26.711c0,0.975,0.526,1.611,1.403,1.611c0.878,0,1.402-0.637,1.402-1.611c0-0.98-0.531-1.629-1.402-1.629
		S174.642,25.731,174.642,26.711 M173.914,25.887c-0.195-0.507-0.598-0.805-1.202-0.805c-0.851,0-1.402,0.635-1.402,1.629
		c0,0.988,0.538,1.611,1.402,1.611c0.579,0,0.981-0.279,1.202-0.733l-0.305-0.188c-0.195,0.396-0.469,0.592-0.897,0.592
		c-0.597,0-1-0.48-1-1.287c0-0.806,0.39-1.3,1-1.3c0.437,0,0.715,0.241,0.871,0.676L173.914,25.887z M168.672,25.094
		c-0.071-0.012-0.137-0.019-0.208-0.019c-0.468,0-0.825,0.312-0.935,0.675v-0.597h-0.383v3.091h0.383v-1.747
		c0-0.624,0.39-1.04,0.929-1.04c0.071,0,0.143,0.007,0.214,0.02V25.094z M163.689,26.706c0-0.806,0.391-1.3,1.002-1.3
		c0.609,0,1,0.487,1,1.3c0,0.799-0.404,1.287-1,1.287C164.093,27.993,163.689,27.512,163.689,26.706 M163.287,26.711
		c0,0.975,0.525,1.611,1.404,1.611c0.877,0,1.401-0.637,1.401-1.611c0-0.98-0.532-1.629-1.401-1.629
		C163.82,25.083,163.287,25.731,163.287,26.711 M162.605,25.154h-0.703v-0.65c0-0.176,0.026-0.272,0.099-0.338
		c0.052-0.046,0.123-0.071,0.233-0.071c0.131,0,0.267,0.032,0.371,0.064v-0.35c-0.092-0.026-0.222-0.059-0.396-0.059
		c-0.227,0-0.422,0.053-0.545,0.194c-0.092,0.104-0.143,0.247-0.143,0.507v0.702h-0.703v0.298h0.703v2.793h0.381v-2.793h0.703
		V25.154z M157.578,26.706c0,0.832-0.37,1.287-0.963,1.287c-0.61,0-0.961-0.468-0.961-1.294c0-0.838,0.377-1.286,0.975-1.286
		C157.208,25.413,157.578,25.861,157.578,26.706 M156.537,28.323c0.527,0,0.865-0.266,1.027-0.629v0.551h0.383v-4.416h-0.383v1.876
		c-0.148-0.344-0.513-0.622-1.007-0.622c-0.767,0-1.305,0.596-1.305,1.629C155.253,27.75,155.777,28.323,156.537,28.323
		 M153.018,25.4c0.598,0,0.936,0.526,0.936,1.026h-1.924C152.082,25.803,152.451,25.4,153.018,25.4 M154.102,27.296
		c-0.142,0.3-0.447,0.689-1.039,0.689c-0.578,0-1.046-0.396-1.046-1.202v-0.046h2.351v-0.052c0-0.915-0.453-1.604-1.35-1.604
		c-0.832,0-1.396,0.655-1.396,1.598c0,1.053,0.558,1.643,1.429,1.643c0.786,0,1.169-0.486,1.344-0.837L154.102,27.296z
		 M150.594,26.498c0-0.688-0.078-0.897-0.271-1.117c-0.183-0.2-0.448-0.298-0.768-0.298c-0.525,0-0.863,0.285-0.98,0.583v-0.512
		h-0.383v3.091h0.383v-1.838c0-0.26,0.078-0.532,0.26-0.721c0.143-0.156,0.351-0.254,0.63-0.254c0.254,0,0.437,0.071,0.553,0.201
		c0.162,0.176,0.195,0.461,0.195,0.948v1.663h0.382V26.498z M146.548,26.68c0,0.806-0.37,1.254-0.962,1.254
		c-0.611,0-0.961-0.455-0.961-1.261c0-0.818,0.376-1.261,0.974-1.261C146.178,25.413,146.548,25.855,146.548,26.68 M146.918,25.154
		h-0.383v0.506c-0.162-0.331-0.514-0.577-1.008-0.577c-0.767,0-1.305,0.604-1.305,1.604s0.512,1.592,1.299,1.592
		c0.506,0,0.852-0.247,1.014-0.61v0.318c0,0.669-0.104,1.221-0.949,1.221c-0.631,0-0.838-0.351-0.877-0.799l-0.37,0.104
		c0.032,0.577,0.37,1.019,1.247,1.019c0.917,0,1.332-0.441,1.332-1.409V25.154z M143.169,23.829h-0.382v0.637h0.382V23.829z
		 M143.169,25.154h-0.382v3.091h0.382V25.154z M141.662,25.587c-0.221-0.266-0.584-0.505-1.123-0.505
		c-0.592,0-1.078,0.311-1.078,0.869c0,0.514,0.324,0.702,0.869,0.832l0.43,0.104c0.37,0.092,0.65,0.188,0.65,0.533
		c0,0.331-0.248,0.565-0.768,0.572c-0.468,0-0.812-0.221-1.007-0.533l-0.312,0.221c0.194,0.325,0.656,0.643,1.272,0.643
		c0.696-0.006,1.202-0.324,1.202-0.928c0-0.553-0.402-0.741-0.922-0.858l-0.41-0.097c-0.409-0.092-0.617-0.208-0.617-0.533
		c0-0.346,0.307-0.501,0.682-0.501c0.41,0,0.684,0.215,0.84,0.429L141.662,25.587z M137.285,25.4c0.597,0,0.935,0.526,0.935,1.026
		h-1.923C136.349,25.803,136.719,25.4,137.285,25.4 M138.369,27.296c-0.143,0.3-0.448,0.689-1.039,0.689
		c-0.578,0-1.047-0.396-1.047-1.202v-0.046h2.352v-0.052c0-0.915-0.454-1.604-1.35-1.604c-0.832,0-1.397,0.655-1.397,1.598
		c0,1.053,0.558,1.643,1.429,1.643c0.786,0,1.17-0.486,1.344-0.837L138.369,27.296z M134.453,26.706
		c0,0.832-0.371,1.287-0.963,1.287c-0.61,0-0.961-0.468-0.961-1.294c0-0.838,0.377-1.286,0.975-1.286
		C134.082,25.413,134.453,25.861,134.453,26.706 M133.412,28.323c0.527,0,0.865-0.266,1.027-0.629v0.551h0.383v-4.416h-0.383v1.876
		c-0.15-0.344-0.514-0.622-1.008-0.622c-0.766,0-1.305,0.596-1.305,1.629C132.127,27.75,132.652,28.323,133.412,28.323"/>
</g>
</svg>
